Fungal-Grow 0 Thickness 0.ufo
<glyph name="U" format="1">
  <advance width="1499"/>
  <unicode hex="0055"/>
  <outline>
    <contour>
      <point x="178" y="1493" type="line"/>
      <point x="381" y="1493" type="line"/>
      <point x="381" y="586" type="line" smooth="yes"/>
      <point x="381" y="266"/>
      <point x="490" y="135"/>
      <point x="750" y="135" type="curve" smooth="yes"/>
      <point x="1008.667" y="135"/>
      <point x="1118" y="266"/>
      <point x="1118" y="586" type="curve" smooth="yes"/>
      <point x="1118" y="1493" type="line"/>
      <point x="1321" y="1493" type="line"/>
      <point x="1321" y="561" type="line" smooth="yes"/>
      <point x="1321" y="171.667"/>
      <point x="1126" y="-29"/>
      <point x="750" y="-29" type="curve" smooth="yes"/>
      <point x="372.667" y="-29"/>
      <point x="178" y="171.667"/>
      <point x="178" y="561" type="curve" smooth="yes"/>
      <point x="178" y="1493" type="line"/>
    </contour>
    <component base="blob1" xScale="0" xyScale="-1.2886" yScale="0" yxScale="-1.2886" xOffset="198" yOffset="1753"/>
    <component base="blob2" xScale="0" xyScale="-1" yScale="0" yxScale="-1" xOffset="45" yOffset="2316"/>
    <component base="blob3" xScale="0" xyScale="-1" yScale="0" yxScale="-1" xOffset="-273" yOffset="2713"/>
    <component base="blob4" xScale="0" xyScale="-0.8783" yScale="0" yxScale="-0.8783" xOffset="-647" yOffset="3001"/>
    <component base="blob5" xScale="0" xyScale="-1" yScale="0" yxScale="-1" xOffset="-1038" yOffset="3208"/>
    <component base="blob6" xScale="0" xyScale="-1.1539" yScale="0" yxScale="-1.1539" xOffset="-1267" yOffset="3659"/>
    <component base="blob7" xScale="0" xyScale="-0.9753" yScale="0" yxScale="-0.9753" xOffset="-1351" yOffset="4128"/>
    <component base="blob8" xScale="0" xyScale="-0.7047" yScale="0" yxScale="-0.7047" xOffset="-1609" yOffset="4437"/>
    <component base="blob9" xScale="0" xyScale="-0.4869" yScale="0" yxScale="-0.4869" xOffset="-1900" yOffset="4528"/>
    <component base="blob2" xScale="0" xyScale="-1" yScale="0" yxScale="-1" xOffset="335" yOffset="1206"/>
    <component base="blob3" xScale="0" xyScale="-1" yScale="0" yxScale="-1" xOffset="748" yOffset="917"/>
    <component base="blob4" xScale="0" xyScale="-0.8783" yScale="0" yxScale="-0.8783" xOffset="1039" yOffset="566"/>
    <component base="blob5" xScale="0" xyScale="-1" yScale="0" yxScale="-1" xOffset="975" yOffset="120"/>
    <component base="blob6" xScale="0" xyScale="-1.1539" yScale="0" yxScale="-1.1539" xOffset="567" yOffset="-169"/>
    <component base="blob7" xScale="0" xyScale="-0.9753" yScale="0" yxScale="-0.9753" xOffset="52" yOffset="-175"/>
    <component base="blob8" xScale="0" xyScale="-0.7047" yScale="0" yxScale="-0.7047" xOffset="-317" yOffset="-367"/>
    <component base="blob9" xScale="0" xyScale="-0.4869" yScale="0" yxScale="-0.4869" xOffset="-411" yOffset="-628"/>
    <component base="blob1" xScale="0" xyScale="-1.2886" yScale="0" yxScale="-1.2886" xOffset="1269" yOffset="937"/>
    <component base="blob2" xScale="0" xyScale="-1.2026" yScale="0" yxScale="-1.2026" xOffset="1801" yOffset="604"/>
    <component base="blob3" xScale="0" xyScale="-1" yScale="0" yxScale="-1" xOffset="2354" yOffset="566"/>
    <component base="blob4" xScale="0" xyScale="-1.1627" yScale="0" yxScale="-1.1627" xOffset="2816" yOffset="828"/>
    <component base="blob5" xScale="0" xyScale="-1" yScale="0" yxScale="-1" xOffset="3221" yOffset="1103"/>
    <component base="blob6" xScale="0" xyScale="-1.1539" yScale="0" yxScale="-1.1539" xOffset="3721" yOffset="985"/>
    <component base="blob7" xScale="0" xyScale="-0.9753" yScale="0" yxScale="-0.9753" xOffset="4043" yOffset="571"/>
    <component base="blob8" xScale="0" xyScale="-0.7047" yScale="0" yxScale="-0.7047" xOffset="3904" yOffset="168"/>
    <component base="blob9" xScale="0" xyScale="-0.4869" yScale="0" yxScale="-0.4869" xOffset="4002" yOffset="-86"/>
    <contour>
      <point x="750" y="1520" type="move" name="above"/>
    </contour>
    <contour>
      <point x="750" y="0" type="move" name="below"/>
    </contour>
    <contour>
      <point x="750" y="0" type="move" name="cedilla"/>
    </contour>
    <contour>
      <point x="0" y="1520" type="move" name="half"/>
    </contour>
    <contour>
      <point x="750" y="0" type="move" name="ogonek"/>
    </contour>
  </outline>
</glyph>
<glyph name="ccedilla" format="1">
  <advance width="1126"/>
  <unicode hex="00E7"/>
  <outline>
    <component base="c"/>
    <component base="cedilla" xOffset="143"/>
    <contour>
      <point x="678" y="-430" type="move" name="Ligature below"/>
    </contour>
    <contour>
      <point x="678" y="1147" type="move" name="above"/>
    </contour>
  </outline>
</glyph>
<glyph name="Imacron" format="1">
  <advance width="604"/>
  <unicode hex="012A"/>
  <outline>
    <component base="macron" xOffset="-210" yOffset="315"/>
    <component base="I"/>
    <contour>
      <point x="303" y="0" type="move" name="below"/>
    </contour>
    <contour>
      <point x="303" y="0" type="move" name="cedilla"/>
    </contour>
  </outline>
</glyph>
<glyph name="uni0266" format="1">
  <advance width="1298"/>
  <unicode hex="0266"/>
  <outline>
    <contour>
      <point x="1124" y="676" type="qcurve" smooth="yes"/>
      <point x="1124" y="0" type="line"/>
      <point x="940" y="0" type="line"/>
      <point x="940" y="670" type="line" smooth="yes"/>
      <point x="940" y="829"/>
      <point x="816" y="987"/>
      <point x="692" y="987" type="qcurve" smooth="yes"/>
      <point x="543" y="987"/>
      <point x="371" y="797"/>
      <point x="371" y="633" type="qcurve" smooth="yes"/>
      <point x="371" y="0" type="line"/>
      <point x="186" y="0" type="line"/>
      <point x="186" y="1150" type="line" smooth="yes"/>
      <point x="186" y="1363.99"/>
      <point x="349" y="1556"/>
      <point x="530" y="1556" type="qcurve" smooth="yes"/>
      <point x="784" y="1556" type="line"/>
      <point x="784" y="1400" type="line"/>
      <point x="553" y="1400" type="line" smooth="yes"/>
      <point x="448" y="1400"/>
      <point x="371" y="1303"/>
      <point x="371" y="1150" type="qcurve" smooth="yes"/>
      <point x="371" y="946" type="line"/>
      <point x="437" y="1047"/>
      <point x="616" y="1147"/>
      <point x="733" y="1147" type="qcurve" smooth="yes"/>
      <point x="926" y="1147"/>
      <point x="1124" y="908"/>
    </contour>
    <contour>
      <point x="278" y="1520" type="move" name="above"/>
    </contour>
    <contour>
      <point x="678" y="0" type="move" name="below"/>
    </contour>
  </outline>
</glyph>
<glyph name="uni026A" format="1">
  <advance width="761"/>
  <unicode hex="026A"/>
  <outline>
    <contour>
      <point x="116" y="956" type="line"/>
      <point x="116" y="1120" type="line"/>
      <point x="644" y="1120" type="line"/>
      <point x="644" y="956" type="line"/>
      <point x="476" y="956" type="line"/>
      <point x="476" y="164" type="line"/>
      <point x="644" y="164" type="line"/>
      <point x="644" y="0" type="line"/>
      <point x="116" y="0" type="line"/>
      <point x="116" y="164" type="line"/>
      <point x="292" y="164" type="line"/>
      <point x="292" y="956" type="line"/>
    </contour>
    <contour>
      <point x="384" y="1147" type="move" name="above"/>
    </contour>
    <contour>
      <point x="384" y="0" type="move" name="below"/>
    </contour>
  </outline>
</glyph>
<glyph name="uni030E" format="1">
  <advance width="0"/>
  <unicode hex="030E"/>
  <outline>
    <component base="uni030D" xOffset="-204"/>
    <component base="uni030D" xOffset="204"/>
    <contour>
      <point x="-512" y="1147" type="move" name="_above"/>
    </contour>
    <contour>
      <point x="-512" y="1147" type="move" name="_above-mark"/>
    </contour>
    <contour>
      <point x="-512" y="1704" type="move" name="above-mark"/>
    </contour>
  </outline>
</glyph>
<glyph name="uni0327" format="1">
  <advance width="0"/>
  <unicode hex="0327"/>
  <outline>
    <component base="cedilla" xOffset="-1024"/>
    <contour>
      <point x="-489" y="0" type="move" name="_cedilla"/>
    </contour>
    <contour>
      <point x="-512" y="-396" type="move" name="below-mark"/>
    </contour>
  </outline>
</glyph>
<glyph name="uni033F" format="1">
  <advance width="0"/>
  <unicode hex="033F"/>
  <outline>
    <component base="uni203E" xOffset="-1024"/>
    <component base="uni203E" xOffset="-1024" yOffset="-321.750"/>
    <contour>
      <point x="-512" y="1147" type="move" name="_above"/>
    </contour>
    <contour>
      <point x="-512" y="1282" type="move" name="_above-mark"/>
    </contour>
    <contour>
      <point x="-512" y="1556" type="move" name="above-mark"/>
    </contour>
  </outline>
</glyph>
<glyph name="uni042B" format="1">
  <advance width="1807"/>
  <unicode hex="042B"/>
  <outline>
    <component base="uni042C"/>
    <component base="I" xOffset="1203"/>
    <contour>
      <point x="903" y="1520" type="move" name="above"/>
    </contour>
  </outline>
</glyph>
<glyph name="uni05B4" format="1">
  <advance width="0"/>
  <unicode hex="05B4"/>
  <outline>
    <contour>
      <point x="580" y="-175" type="line"/>
      <point x="730" y="-175" type="line"/>
      <point x="730" y="-325" type="line"/>
      <point x="580" y="-325" type="line"/>
    </contour>
    <contour>
      <point x="655" y="0" type="move" name="_Ligature rtl-below"/>
    </contour>
    <contour>
      <point x="655" y="0" type="move" name="_rtl-below"/>
    </contour>
    <contour>
      <point x="655" y="0" type="move" name="_rtl-below-mark"/>
    </contour>
  </outline>
</glyph>
<glyph name="uni05C7" format="1">
  <advance width="0"/>
  <unicode hex="05C7"/>
  <outline>
    <contour>
      <point x="730" y="-195" type="line"/>
      <point x="730" y="-445" type="line"/>
      <point x="580" y="-445" type="line"/>
      <point x="580" y="-195" type="line"/>
      <point x="355" y="-195" type="line"/>
      <point x="355" y="-45" type="line"/>
      <point x="955" y="-45" type="line"/>
      <point x="955" y="-195" type="line"/>
    </contour>
    <contour>
      <point x="655" y="0" type="move" name="_Ligature rtl-below"/>
    </contour>
    <contour>
      <point x="655" y="0" type="move" name="_rtl-below"/>
    </contour>
    <contour>
      <point x="655" y="0" type="move" name="_rtl-below-mark"/>
    </contour>
  </outline>
</glyph>
<glyph name="uni064E" format="1">
  <advance width="0"/>
  <unicode hex="064E"/>
  <outline>
    <contour>
      <point x="220" y="1210" type="line"/>
      <point x="220" y="1320" type="line"/>
      <point x="804" y="1450" type="line"/>
      <point x="804" y="1340" type="line"/>
    </contour>
    <contour>
      <point x="512" y="1200" type="move" name="_Ligature rtl-above"/>
    </contour>
    <contour>
      <point x="512" y="1200" type="move" name="_rtl-above"/>
    </contour>
    <contour>
      <point x="512" y="1200" type="move" name="_rtl-above-mark"/>
    </contour>
    <contour>
      <point x="512" y="1500" type="move" name="rtl-above-mark"/>
    </contour>
  </outline>
</glyph>
<glyph name="uni068A" format="1">
  <advance width="912"/>
  <unicode hex="068A"/>
  <outline>
    <component base="uni062F"/>
    <component base="arabic_dot" xOffset="425" yOffset="-350"/>
    <contour>
      <point x="400" y="1000" type="move" name="rtl-above"/>
    </contour>
    <contour>
      <point x="500" y="-400" type="move" name="rtl-below"/>
    </contour>
  </outline>
</glyph>
<glyph name="uni06D0" format="1">
  <advance width="1603"/>
  <unicode hex="06D0"/>
  <outline>
    <component base="arabic_2dots_a" xOffset="650" yOffset="-520"/>
    <component base="uni0649"/>
    <contour>
      <point x="500" y="750" type="move" name="rtl-above"/>
    </contour>
    <contour>
      <point x="725" y="-870" type="move" name="rtl-below"/>
    </contour>
  </outline>
</glyph>
<glyph name="uni1EC8" format="1">
  <advance width="604"/>
  <unicode hex="1EC8"/>
  <outline>
    <component base="I"/>
    <component base="hookabovecomb" xOffset="803" yOffset="373"/>
    <contour>
      <point x="303" y="0" type="move" name="below"/>
    </contour>
    <contour>
      <point x="303" y="0" type="move" name="cedilla"/>
    </contour>
  </outline>
</glyph>
<glyph name="uni2C6A" format="1">
  <advance width="1186"/>
  <unicode hex="2C6A"/>
  <outline>
    <contour>
      <point x="186" y="1556" type="line"/>
      <point x="371" y="1556" type="line"/>
      <point x="371" y="637" type="line"/>
      <point x="920" y="1120" type="line"/>
      <point x="1155" y="1120" type="line"/>
      <point x="561" y="596" type="line"/>
      <point x="1021" y="153" type="line"/>
      <point x="1180" y="153" type="line"/>
      <point x="1180" y="-283" type="line"/>
      <point x="996" y="-283" type="line"/>
      <point x="996" y="0" type="line"/>
      <point x="940" y="0" type="line"/>
      <point x="371" y="547" type="line"/>
      <point x="371" y="0" type="line"/>
      <point x="186" y="0" type="line"/>
    </contour>
    <contour>
      <point x="278" y="1520" type="move" name="above"/>
    </contour>
    <contour>
      <point x="678" y="0" type="move" name="below"/>
    </contour>
  </outline>
</glyph>
<glyph name="uniA698" format="1">
  <advance width="2781"/>
  <unicode hex="A698"/>
  <outline>
    <component base="uniA74E"/>
    <contour>
      <point x="1390" y="1520" type="move" name="above"/>
    </contour>
    <contour>
      <point x="1390" y="0" type="move" name="below"/>
    </contour>
    <contour>
      <point x="0" y="1520" type="move" name="half"/>
    </contour>
  </outline>
</glyph>
<glyph name="uniA741" format="1">
  <advance width="1194"/>
  <unicode hex="A741"/>
  <outline>
    <contour>
      <point x="194" y="1556" type="line"/>
      <point x="379" y="1556" type="line"/>
      <point x="379" y="1383.7" type="line"/>
      <point x="669" y="1383.7" type="line"/>
      <point x="669" y="1219.7" type="line"/>
      <point x="379" y="1219.7" type="line"/>
      <point x="379" y="637" type="line"/>
      <point x="928" y="1120" type="line"/>
      <point x="1163" y="1120" type="line"/>
      <point x="569" y="596" type="line"/>
      <point x="1188" y="0" type="line"/>
      <point x="948" y="0" type="line"/>
      <point x="379" y="547" type="line"/>
      <point x="379" y="0" type="line"/>
      <point x="194" y="0" type="line"/>
      <point x="194" y="1219.7" type="line"/>
      <point x="14" y="1219.7" type="line"/>
      <point x="14" y="1383.7" type="line"/>
      <point x="194" y="1383.7" type="line"/>
    </contour>
    <contour>
      <point x="286" y="1520" type="move" name="above"/>
    </contour>
    <contour>
      <point x="686" y="0" type="move" name="below"/>
    </contour>
    <contour>
      <point x="0" y="1520" type="move" name="half"/>
    </contour>
  </outline>
</glyph>
<glyph name="uniFB5F" format="1">
  <advance width="2011"/>
  <unicode hex="FB5F"/>
  <outline>
    <component base="arabic_2dots_a" xOffset="825" yOffset="900"/>
    <component base="uni066E.fina"/>
    <contour>
      <point x="900" y="1100" type="move" name="rtl-above"/>
    </contour>
    <contour>
      <point x="900" y="-150" type="move" name="rtl-below"/>
    </contour>
  </outline>
</glyph>
<glyph name="uniFB7C" format="1">
  <advance width="1266"/>
  <unicode hex="FB7C"/>
  <outline>
    <component base="uniFEA3"/>
    <component base="arabic_3dots_a" xOffset="400" yOffset="-200"/>
    <contour>
      <point x="600" y="1000" type="move" name="rtl-above"/>
    </contour>
    <contour>
      <point x="600" y="-500" type="move" name="rtl-below"/>
    </contour>
  </outline>
</glyph>
<glyph name="uniFB93" format="1">
  <advance width="1833"/>
  <unicode hex="FB93"/>
  <outline>
    <component base="uniFB8F"/>
    <component base="arabic_gaf_bar" xOffset="970"/>
    <contour>
      <point x="500" y="1400" type="move" name="rtl-above"/>
    </contour>
    <contour>
      <point x="800" y="-150" type="move" name="rtl-below"/>
    </contour>
  </outline>
</glyph>
<glyph name="uniFBE6" format="1">
  <advance width="570"/>
  <unicode hex="FBE6"/>
  <outline>
    <component base="arabic_2dots_a" xOffset="224" yOffset="-250"/>
    <component base="uni066E.init"/>
    <contour>
      <point x="299" y="1000" type="move" name="rtl-above"/>
    </contour>
    <contour>
      <point x="299" y="-550" type="move" name="rtl-below"/>
    </contour>
  </outline>
</glyph>
<glyph name="uniFE7E" format="1">
  <advance width="600"/>
  <unicode hex="FE7E"/>
  <outline>
    <component base="uni0652" xOffset="-212"/>
    <contour>
      <point x="300" y="1850" type="move" name="rtl-above"/>
    </contour>
    <contour>
      <point x="300" y="-100" type="move" name="rtl-below"/>
    </contour>
  </outline>
</glyph>
<glyph name="uniFE95" format="1">
  <advance width="1928"/>
  <unicode hex="FE95"/>
  <outline>
    <component base="arabic_2dots" xOffset="700" yOffset="650"/>
    <component base="uni066E"/>
    <contour>
      <point x="900" y="850" type="move" name="rtl-above"/>
    </contour>
    <contour>
      <point x="900" y="-150" type="move" name="rtl-below"/>
    </contour>
  </outline>
</glyph>
<glyph name="Circumflex" format="1">
  <advance width="0"/>
  <outline>
    <contour>
      <point x="-606" y="1528" type="line"/>
      <point x="-418" y="1528" type="line"/>
      <point x="-207" y="1262" type="line"/>
      <point x="-346" y="1262" type="line"/>
      <point x="-512" y="1440" type="line"/>
      <point x="-678" y="1262" type="line"/>
      <point x="-817" y="1262" type="line"/>
    </contour>
    <contour>
      <point x="-512" y="1147" type="move" name="_above"/>
    </contour>
    <contour>
      <point x="-512" y="1147" type="move" name="_above-mark"/>
    </contour>
    <contour>
      <point x="-512" y="1528" type="move" name="above-mark"/>
    </contour>
  </outline>
</glyph>
<glyph name="iogonek.dotless" format="1">
  <advance width="569"/>
  <outline>
    <component base="dotlessi"/>
    <component base="ogonek" xOffset="-182"/>
    <contour>
      <point x="287" y="1147" type="move" name="above"/>
    </contour>
  </outline>
</glyph>
<glyph name="uni068F.fina" format="1">
  <advance width="1075"/>
  <outline>
    <component base="arabic_3dots_a" xOffset="250" yOffset="1250"/>
    <component base="uniFEAA"/>
    <contour>
      <point x="450" y="1450" type="move" name="rtl-above"/>
    </contour>
    <contour>
      <point x="450" y="-150" type="move" name="rtl-below"/>
    </contour>
  </outline>
</glyph>
<glyph name="uni0694.fina" format="1">
  <advance width="1130"/>
  <outline>
    <component base="arabic_dot" xOffset="820" yOffset="-440"/>
    <component base="uniFEAE"/>
    <contour>
      <point x="700" y="750" type="move" name="rtl-above"/>
    </contour>
    <contour>
      <point x="500" y="-500" type="move" name="rtl-below"/>
    </contour>
  </outline>
</glyph>
<glyph name="uni069C.fina" format="1">
  <advance width="2611"/>
  <outline>
    <component base="uniFEB2"/>
    <component base="arabic_3dots" xOffset="1250" yOffset="800"/>
    <component base="arabic_3dots_a" xOffset="1400" yOffset="-250"/>
    <contour>
      <point x="600" y="800" type="move" name="rtl-above"/>
    </contour>
    <contour>
      <point x="600" y="-600" type="move" name="rtl-below"/>
    </contour>
  </outline>
</glyph>
<glyph name="uni06B8.medi" format="1">
  <advance width="678"/>
  <outline>
    <component base="uniFEE0"/>
    <component base="arabic_3dots_a" xOffset="129" yOffset="-250"/>
    <contour>
      <point x="339" y="1650" type="move" name="rtl-above"/>
    </contour>
    <contour>
      <point x="329" y="-550" type="move" name="rtl-below"/>
    </contour>
  </outline>
</glyph>
<glyph name="uni06BC.medi" format="1">
  <advance width="618"/>
  <outline>
    <component base="arabic_dot" xOffset="224" yOffset="850"/>
    <component base="uni066E.medi"/>
    <component base="arabic_ring" xOffset="80" yOffset="-268"/>
    <contour>
      <point x="299" y="1050" type="move" name="rtl-above"/>
    </contour>
    <contour>
      <point x="299" y="-318" type="move" name="rtl-below"/>
    </contour>
  </outline>
</glyph>
